<svg width="120" height="15" viewBox="0 0 120 15" fill="none" xmlns="http://www.w3.org/2000/svg">
<path d="M98.4093 7.71347C100.179 7.70807 101.363 9.275 101.38 10.8401C101.394 12.3657 100.161 14.0692 98.3751 14.0764L86.3716 14.1231C85.7265 14.1249 85.2485 13.4798 85.2287 12.9515C85.2108 12.4682 85.6816 11.7907 86.2961 11.7889L98.3068 11.7674C98.6483 11.7674 99.0759 11.1043 99.0292 10.8186C98.9825 10.5329 98.5405 10.0513 98.1685 10.0495L87.7319 10.0189C86.0086 10.0135 84.8208 8.36935 84.8154 6.8743C84.8101 5.25526 86.1218 3.72247 87.9313 3.71169L99.5935 3.647C100.248 3.6434 100.783 4.03514 100.9 4.54547C101.031 5.12767 100.726 5.97044 99.951 5.97403L88.2404 6.01356C87.6277 6.01536 87.1245 6.30467 87.1101 6.86351C87.0976 7.35048 87.5019 7.79612 88.0877 7.78894L92.3392 7.73503L98.4129 7.71347H98.4093Z" fill="white"/>
<path d="M78.2241 7.72467C78.7344 7.72467 79.1423 8.50993 79.18 8.86393C79.2178 9.21793 78.8548 10.0265 78.384 10.0265L70.4667 10.0409C69.9725 10.0409 69.5862 10.4093 69.5413 10.8208C69.4874 11.3221 69.915 11.775 70.4936 11.775H80.5475L80.5798 8.57822C80.5942 7.11371 79.4981 6.03914 78.039 6.03914H69.9114C69.1441 6.03914 68.4919 5.83429 68.3984 4.99692C68.3445 4.51534 68.641 3.66719 69.4119 3.66719L78.3894 3.6582C79.8341 3.6582 81.0992 4.29612 81.9006 5.48569C82.3642 6.17391 82.9033 7.15145 82.9015 8.00679L82.8961 13.1047C82.8961 13.6635 82.1001 14.1325 81.5538 14.1307L70.2565 14.084C68.5026 14.0768 67.2843 12.5063 67.2088 10.9951C67.1334 9.48387 68.3086 7.72647 70.0139 7.72647H78.2223L78.2241 7.72467Z" fill="white"/>
<path d="M62.9118 9.02898L62.928 4.98588C62.9316 4.23296 63.3269 3.73341 63.9738 3.65974C64.6854 3.57708 65.273 4.01913 65.2856 4.84572C65.3089 6.41983 65.3628 8.01731 65.264 9.56627C65.0879 12.3389 62.8076 14.2185 60.1266 14.1718C58.5812 14.1449 57.2263 13.8645 56.0188 12.8762C54.7609 13.8807 53.3503 14.1431 51.8624 14.1574C48.4824 14.1916 46.4537 11.5124 46.5435 8.20599L46.6441 4.46117C46.6603 3.8574 47.4941 3.60583 47.9667 3.65974C48.5956 3.73162 48.9856 4.2707 48.9873 4.97689L48.9963 9.11164C48.9999 10.8349 50.38 11.8178 52.0439 11.7334C53.0358 11.6831 54.5417 11.4225 54.6729 10.1916C54.8508 8.52944 54.7843 6.84391 54.7771 5.16198C54.7735 4.43422 55.0628 3.8556 55.7205 3.68849C56.22 3.56091 57.1706 3.76935 57.1886 4.51328L57.3251 10.1629C57.3539 11.3578 58.8274 11.6471 59.7384 11.719C61.4797 11.8574 62.9046 10.9104 62.9118 9.02898Z" fill="white"/>
<path d="M117.592 12.9068L117.575 8.75231C117.57 7.21054 116.33 6.06948 114.803 6.07667L107.962 6.10902C106.697 6.11441 105.737 7.27343 105.739 8.45043L105.743 12.7289C105.743 13.3794 105.383 13.8844 104.808 14.0497C104.37 14.1755 103.385 13.7676 103.381 13.056L103.324 1.58253C103.32 0.802664 103.823 0.270771 104.469 0.259989C105.234 0.247411 105.721 0.766725 105.726 1.56816L105.743 4.23122C106.589 3.88621 107.304 3.65081 108.136 3.6544L115.342 3.68136C118.172 3.69214 120.037 6.37856 119.999 9.2896L119.955 12.8763C119.946 13.5394 119.378 14.0371 118.831 14.0569C118.204 14.0802 117.593 13.5969 117.59 12.9068H117.592Z" fill="white"/>
<path d="M10.5214 5.00761C10.2914 4.70033 9.86736 4.41462 9.62298 4.40384C9.32648 4.38946 8.81615 4.65181 8.60232 4.94292L2.42265 13.2933C1.96982 13.9042 1.22769 14.19 0.61673 13.8324C-0.0391518 13.4496 -0.206267 12.5601 0.2825 11.906L6.49631 3.57904C7.23844 2.58534 8.01831 1.87016 9.20968 1.78211C10.3274 1.70124 11.4972 2.01571 12.2591 3.03996L18.6813 11.6671C19.1198 12.2547 19.3139 12.8818 18.8305 13.4766C18.5034 13.8791 17.4756 14.3355 16.9976 13.6958L10.5214 5.00761Z" fill="white"/>
<path d="M40.5953 6.13054L33.2853 6.08203C32.0041 6.07304 30.9709 7.12245 30.9673 8.39109L30.9511 12.8762C30.9493 13.4441 30.439 13.9688 29.9736 14.0389C29.3932 14.1269 28.6223 13.7711 28.6151 13.0865C28.5971 11.3039 28.5037 9.64176 28.6618 7.86818C28.8433 5.84842 30.5576 3.88797 32.6043 3.76937C35.4668 3.60405 38.1658 3.58788 41.0373 3.7496C43.3248 3.87898 45.1271 6.17547 45.1451 8.3839L45.1846 12.8942C45.19 13.4782 44.6294 13.9867 44.1676 14.0389C43.677 14.0946 42.8953 13.8089 42.8846 13.2123L42.7983 8.56719C42.7785 7.47825 41.828 6.13953 40.5935 6.13054H40.5953Z" fill="white"/>
<path d="M22.7043 12.9374C22.7007 13.6795 21.8364 14.0712 21.3997 14.0227C20.7546 13.9508 20.3054 13.4279 20.3054 12.7163V1.46213C20.3036 0.6607 20.875 0.188106 21.5848 0.207872C22.2946 0.227638 22.7582 0.77211 22.7546 1.57534L22.7043 12.9374Z" fill="white"/>
<path d="M27.1338 12.9015C27.1356 13.5394 26.4725 14.0084 26.0125 14.0534C25.5525 14.0983 24.7385 13.5916 24.7367 12.968L24.7277 4.72368C24.7277 4.14147 25.3836 3.68146 25.8274 3.63653C26.2228 3.597 27.1051 4.03186 27.1068 4.56195L27.1338 12.8997V12.9015Z" fill="white"/>
<path d="M25.9047 0.00303839C26.8103 -0.0526666 27.256 0.667905 27.2919 1.3166C27.3386 2.15936 26.7996 2.73079 26.0233 2.74696C25.247 2.76313 24.6576 2.25999 24.6199 1.48192C24.5857 0.7883 25.0314 0.0569465 25.9065 0.00303839H25.9047Z" fill="white"/>
<path d="M9.43396 8.26587C9.70265 9.87829 10.9662 11.1418 12.5786 11.4105C10.9662 11.6792 9.70265 12.9427 9.43396 14.5551C9.16527 12.9427 7.90174 11.6792 6.28932 11.4105C7.90174 11.1418 9.16527 9.87829 9.43396 8.26587Z" fill="white"/>
</svg>