<svg width="149" height="39" viewBox="0 0 149 39" fill="none" xmlns="http://www.w3.org/2000/svg">
<path d="M121.7 9.53931C123.889 9.53264 125.353 11.4704 125.373 13.406C125.391 15.2926 123.867 17.3993 121.658 17.4082L106.813 17.466C106.016 17.4682 105.424 16.6704 105.4 16.0171C105.378 15.4193 105.96 14.5815 106.72 14.5793L121.573 14.5526C121.996 14.5526 122.524 13.7326 122.467 13.3793C122.409 13.026 121.862 12.4304 121.402 12.4282L108.496 12.3904C106.364 12.3838 104.896 10.3504 104.889 8.50153C104.882 6.49931 106.504 4.60376 108.742 4.59042L123.164 4.51042C123.973 4.50598 124.636 4.99042 124.78 5.62153C124.942 6.34153 124.564 7.38375 123.607 7.3882L109.124 7.43709C108.367 7.43931 107.744 7.79709 107.727 8.4882C107.711 9.09042 108.211 9.64153 108.936 9.63264L114.193 9.56598L121.704 9.53931H121.7Z" fill="white"/>
<path d="M96.7376 9.55265C97.3687 9.55265 97.8731 10.5238 97.9198 10.9615C97.9665 11.3993 97.5176 12.3993 96.9354 12.3993L87.1442 12.4171C86.5331 12.4171 86.0554 12.8727 85.9998 13.3815C85.9331 14.0015 86.462 14.5615 87.1776 14.5615H99.6109L99.6509 10.6082C99.6687 8.7971 98.3131 7.46821 96.5087 7.46821H86.4576C85.5087 7.46821 84.702 7.21488 84.5865 6.17932C84.5198 5.58377 84.8865 4.53488 85.8398 4.53488L96.942 4.52377C98.7287 4.52377 100.293 5.31265 101.284 6.78377C101.858 7.63488 102.524 8.84377 102.522 9.90154L102.515 16.206C102.515 16.8971 101.531 17.4771 100.855 17.4749L86.8843 17.4171C84.7154 17.4082 83.2087 15.466 83.1154 13.5971C83.022 11.7282 84.4754 9.55488 86.5842 9.55488H96.7354L96.7376 9.55265Z" fill="white"/>
<path d="M77.8013 11.166L77.8213 6.166C77.8258 5.23488 78.3146 4.61711 79.1146 4.526C79.9946 4.42377 80.7213 4.97044 80.7369 5.99266C80.7658 7.93933 80.8324 9.91488 80.7102 11.8304C80.4924 15.2593 77.6724 17.5838 74.3569 17.526C72.4458 17.4927 70.7702 17.146 69.2769 15.9238C67.7213 17.166 65.9769 17.4904 64.1369 17.5082C59.9569 17.5504 57.448 14.2371 57.5591 10.1482L57.6835 5.51711C57.7035 4.77044 58.7346 4.45933 59.3191 4.526C60.0969 4.61488 60.5791 5.28155 60.5813 6.15488L60.5924 11.2682C60.5969 13.3993 62.3035 14.6149 64.3613 14.5104C65.588 14.4482 67.4502 14.126 67.6124 12.6038C67.8324 10.5482 67.7502 8.46377 67.7413 6.38377C67.7369 5.48377 68.0946 4.76822 68.908 4.56155C69.5258 4.40377 70.7013 4.66155 70.7235 5.58155L70.8924 12.5682C70.928 14.046 72.7502 14.4038 73.8769 14.4927C76.0302 14.6638 77.7924 13.4927 77.8013 11.166Z" fill="white"/>
<path d="M145.422 15.9615L145.402 10.8238C145.396 8.91709 143.862 7.50598 141.973 7.51487L133.513 7.55487C131.949 7.56153 130.762 8.99487 130.764 10.4504L130.769 15.7415C130.769 16.546 130.324 17.1704 129.613 17.3749C129.071 17.5304 127.853 17.026 127.849 16.146L127.778 1.95709C127.773 0.992646 128.396 0.334868 129.193 0.321535C130.14 0.305979 130.742 0.948201 130.749 1.93931L130.769 5.23265C131.816 4.80598 132.7 4.51487 133.729 4.51931L142.64 4.55265C146.14 4.56598 148.447 7.8882 148.4 11.4882L148.344 15.9238C148.333 16.7438 147.631 17.3593 146.956 17.3838C146.18 17.4126 145.424 16.8149 145.42 15.9615H145.422Z" fill="white"/>
<path d="M13.0116 6.19267C12.7271 5.81267 12.2027 5.45933 11.9005 5.446C11.5338 5.42822 10.9027 5.75267 10.6382 6.11266L2.99603 16.4393C2.43603 17.1949 1.51825 17.5482 0.762693 17.106C-0.0484179 16.6327 -0.255085 15.5327 0.34936 14.7238L8.0338 4.426C8.95158 3.19711 9.91603 2.31266 11.3894 2.20378C12.7716 2.10378 14.2182 2.49266 15.1605 3.75933L23.1027 14.4282C23.6449 15.1549 23.8849 15.9304 23.2871 16.666C22.8827 17.1638 21.6116 17.7282 21.0205 16.9371L13.0116 6.19267Z" fill="white"/>
<path d="M50.203 7.58155L41.163 7.52155C39.5786 7.51044 38.3008 8.80822 38.2963 10.3771L38.2763 15.9238C38.2741 16.626 37.643 17.2749 37.0675 17.3616C36.3497 17.4704 35.3963 17.0304 35.3875 16.1838C35.3652 13.9793 35.2497 11.9238 35.4452 9.73044C35.6697 7.23267 37.7897 4.80822 40.3208 4.66155C43.8608 4.45711 47.1986 4.43711 50.7497 4.63711C53.5786 4.79711 55.8075 7.63711 55.8297 10.3682L55.8786 15.946C55.8852 16.6682 55.1919 17.2971 54.6208 17.3616C54.0141 17.4304 53.0475 17.0771 53.0341 16.3393L52.9275 10.5949C52.903 9.24822 51.7275 7.59266 50.2008 7.58155H50.203Z" fill="white"/>
<path d="M28.0778 15.9993C28.0733 16.9171 27.0045 17.4016 26.4645 17.3416C25.6667 17.2527 25.1111 16.606 25.1111 15.726V1.80823C25.1089 0.817116 25.8156 0.232671 26.6933 0.257116C27.5711 0.28156 28.1445 0.954894 28.14 1.94823L28.0778 15.9993Z" fill="white"/>
<path d="M33.5556 15.9549C33.5578 16.7438 32.7378 17.3238 32.1689 17.3793C31.6 17.4349 30.5933 16.8082 30.5911 16.0371L30.58 5.84154C30.58 5.12154 31.3911 4.55265 31.94 4.49709C32.4289 4.4482 33.52 4.98598 33.5222 5.64154L33.5556 15.9526V15.9549Z" fill="white"/>
<path d="M32.0356 0.00375749C33.1556 -0.0651314 33.7067 0.82598 33.7512 1.6282C33.8089 2.67042 33.1423 3.37709 32.1823 3.39709C31.2223 3.41709 30.4934 2.79487 30.4467 1.83265C30.4045 0.974869 30.9556 0.0704242 32.0378 0.00375749H32.0356Z" fill="white"/>
<g filter="url(#filter0_d_10_111)">
<path d="M11.6667 10.2222C11.9989 12.2163 13.5615 13.7788 15.5555 14.1111C13.5615 14.4434 11.9989 16.006 11.6667 18C11.3344 16.006 9.7718 14.4434 7.77777 14.1111C9.7718 13.7788 11.3344 12.2163 11.6667 10.2222Z" fill="white"/>
</g>
<defs>
<filter id="filter0_d_10_111" x="2.87777" y="10.2222" width="17.5778" height="28.6778" filterUnits="userSpaceOnUse" color-interpolation-filters="sRGB">
<feFlood flood-opacity="0" result="BackgroundImageFix"/>
<feColorMatrix in="SourceAlpha" type="matrix" values="0 0 0 0 0 0 0 0 0 0 0 0 0 0 0 0 0 0 127 0" result="hardAlpha"/>
<feMorphology radius="16" operator="erode" in="SourceAlpha" result="effect1_dropShadow_10_111"/>
<feOffset dy="16"/>
<feGaussianBlur stdDeviation="10.45"/>
<feComposite in2="hardAlpha" operator="out"/>
<feColorMatrix type="matrix" values="0 0 0 0 0 0 0 0 0 0 0 0 0 0 0 0 0 0 0.15 0"/>
<feBlend mode="normal" in2="BackgroundImageFix" result="effect1_dropShadow_10_111"/>
<feBlend mode="normal" in="SourceGraphic" in2="effect1_dropShadow_10_111" result="shape"/>
</filter>
</defs>
</svg>